<?xml version="1.0" standalone="no"?>
<!DOCTYPE svg PUBLIC "-//W3C//DTD SVG 20010904//EN"
 "http://www.w3.org/TR/2001/REC-SVG-20010904/DTD/svg10.dtd">
<svg version="1.0" xmlns="http://www.w3.org/2000/svg"
 width="512.000000pt" height="512.000000pt" viewBox="0 0 512.000000 512.000000"
 preserveAspectRatio="xMidYMid meet">
<metadata>
Created by potrace 1.11, written by Peter Selinger 2001-2013
</metadata>
<g transform="translate(0.000000,512.000000) scale(0.100000,-0.100000)"
fill="#000000" stroke="none">
<path d="M670 5099 c-270 -59 -496 -273 -566 -538 -33 -124 -23 -288 22 -397
9 -21 18 -47 20 -58 2 -10 45 -103 95 -205 79 -160 90 -187 79 -204 -22 -36
-120 -235 -141 -289 -26 -65 -74 -212 -95 -293 -34 -129 -42 -167 -59 -300 -4
-27 -9 -61 -12 -75 -3 -14 -6 -119 -7 -235 -3 -197 8 -331 39 -480 28 -135 40
-180 74 -283 58 -171 65 -191 126 -314 59 -122 85 -169 98 -179 5 -3 7 -8 6
-10 -2 -2 29 -52 69 -111 276 -412 679 -739 1145 -932 112 -47 331 -116 407
-130 14 -2 45 -9 70 -15 60 -13 159 -28 250 -38 137 -14 589 -6 618 11 4 2 34
6 68 10 88 9 352 78 485 127 130 47 336 147 454 220 44 27 89 55 100 62 25 15
98 69 105 78 3 3 12 10 21 15 52 30 233 195 344 316 96 104 219 271 299 408
53 91 163 318 172 355 1 6 16 47 32 92 17 46 28 83 25 83 -3 0 -1 6 5 13 5 6
13 28 18 47 4 19 9 40 10 45 55 223 73 390 69 640 -2 157 -9 236 -31 360 -157
901 -811 1653 -1691 1945 -398 132 -850 168 -1253 100 -30 -5 -72 -12 -94 -15
-104 -15 -378 -98 -506 -153 l-45 -19 -26 39 c-96 143 -279 265 -465 309 -83
19 -239 18 -334 -2z"/>
</g>
</svg>
